<svg width="180" height="151" viewBox="0 0 180 151" fill="none" xmlns="http://www.w3.org/2000/svg">
<path fill-rule="evenodd" clip-rule="evenodd" d="M167.032 130.189C200.701 100.148 157.232 83.0067 165.243 57.6202C173.254 32.2337 193.533 -5.94442 117.871 0.781824C42.2087 7.50807 -20.6066 83.9264 6.36722 119.892C33.341 155.857 133.363 160.23 167.032 130.189Z" fill="#0065FD" fill-opacity="0.12"/>
<path d="M162.5 145H152.5V75C152.496 70.8598 149.14 67.5044 145 67.5V52.5C144.996 48.3598 141.64 45.0044 137.5 45V30C137.496 25.8598 134.14 22.5044 130 22.5V7.5C129.996 3.35977 126.64 0.00439453 122.5 0H57.5001C53.3599 0.00439453 50.0045 3.35977 50.0001 7.5V22.5C45.8599 22.5044 42.5045 25.8598 42.5001 30V45C38.3599 45.0044 35.0045 48.3598 35.0001 52.5V67.5C30.8599 67.5044 27.5045 70.8598 27.5001 75V145H17.4999C16.1191 145 15 146.119 15 147.5C15 148.881 16.1191 150 17.4999 150H162.5C163.881 150 165 148.881 165 147.5C165 146.119 163.881 145 162.5 145ZM54.9999 7.5C55.0008 6.11982 56.1196 5.00098 57.4998 5.0001H122.5C123.88 5.00098 124.999 6.11982 125 7.5V22.5H87.2473C86.0593 16.6802 80.9399 12.5001 75 12.5001C69.0601 12.5001 63.9407 16.6802 62.7527 22.5H55.0002V7.5H54.9999ZM82.0395 22.5H67.9608C69.0053 19.5059 71.8292 17.4999 75.0003 17.4999C78.1714 17.4999 80.995 19.5059 82.0395 22.5ZM47.4999 30C47.5008 28.6195 48.6196 27.501 49.9998 27.5001H130C131.38 27.501 132.499 28.6198 132.5 30V45H79.7473C78.5593 39.1802 73.4399 35.0001 67.5 35.0001C61.5601 35.0001 56.4407 39.1802 55.2527 45H47.5002V30H47.4999ZM74.5395 45H60.4608C61.5053 42.0059 64.3292 39.9999 67.5003 39.9999C70.6714 39.9999 73.495 42.0059 74.5395 45ZM39.9999 52.5C40.0008 51.1195 41.1196 50.001 42.4998 50.0001H137.5C138.88 50.001 139.999 51.1198 140 52.5V67.5H72.2473C71.0593 61.6802 65.9399 57.5001 60 57.5001C54.0601 57.5001 48.9407 61.6802 47.7527 67.5H39.9999V52.5ZM67.0395 67.5H52.9608C54.0053 64.5059 56.8292 62.4999 60.0003 62.4999C63.1714 62.4999 65.995 64.5059 67.0395 67.5ZM147.5 145H32.4999V75C32.5008 73.6198 33.6196 72.501 34.9998 72.5001H145C146.38 72.501 147.499 73.6198 147.5 75V145H147.5Z" fill="#0065FD"/>
<path d="M57.5001 112.5C65.7844 112.5 72.5001 105.784 72.5001 97.5C72.5001 89.2157 65.7844 82.5 57.5001 82.5C49.2159 82.5 42.5001 89.2157 42.5001 97.5C42.5092 105.78 49.2194 112.491 57.5001 112.5ZM57.5001 87.5001C63.0229 87.5001 67.5 91.9772 67.5 97.5C67.5 103.023 63.0229 107.5 57.5001 107.5C51.9774 107.5 47.5002 103.023 47.5002 97.5C47.5055 91.9793 51.9794 87.5054 57.5001 87.5001Z" fill="#0065FD"/>
<path d="M62.125 95.3752L56.875 100.625L54.25 98.0002" stroke="#0065FD" stroke-width="5" stroke-linecap="round" stroke-linejoin="round"/>
<path d="M135 82.5H82.5C81.1193 82.5 80.0001 83.6191 80.0001 84.9999C80.0001 86.3807 81.1193 87.4998 82.5 87.4998H135C136.381 87.4998 137.5 86.3807 137.5 84.9999C137.5 83.6191 136.381 82.5 135 82.5Z" fill="#0065FD"/>
<path d="M135 95.0001H82.5C81.1193 95.0001 80.0001 96.1196 80.0001 97.5C80.0001 98.8808 81.1193 99.9999 82.5 99.9999H135C136.381 99.9999 137.5 98.8805 137.5 97.5C137.5 96.1193 136.381 95.0001 135 95.0001Z" fill="#0065FD"/>
<path d="M135 107.5H82.5C81.1193 107.5 80.0001 108.619 80.0001 110C80.0001 111.381 81.1193 112.5 82.5 112.5H135C136.381 112.5 137.5 111.381 137.5 110C137.5 108.619 136.381 107.5 135 107.5Z" fill="#0065FD"/>
<path d="M135 120H45C43.6193 120 42.5001 121.119 42.5001 122.5C42.5001 123.881 43.6193 125 45 125H135C136.381 125 137.5 123.881 137.5 122.5C137.5 121.119 136.381 120 135 120Z" fill="#0065FD"/>
<path d="M135 132.5H45C43.6193 132.5 42.5001 133.62 42.5001 135C42.5001 136.38 43.6193 137.5 45 137.5H135C136.381 137.5 137.5 136.381 137.5 135C137.5 133.619 136.381 132.5 135 132.5Z" fill="#0065FD"/>
</svg>
