<svg width="180" height="169" viewBox="0 0 180 169" fill="none" xmlns="http://www.w3.org/2000/svg">
<path d="M143.556 168.455C162.486 170.108 196.764 144.124 170.397 105.731C143.109 61.2458 189.696 29.42 151.33 4.77297C123.519 -13.0927 90.0912 25.5085 67.7104 17.8451C19.9677 4.77297 -10.2444 53.0661 10.8103 83.77C26.5434 106.713 -11.6146 122.479 3.70534 140.648C20.7571 160.871 34.2695 139.009 59.2816 143.586C95.5956 150.231 121.623 166.539 143.556 168.455Z" fill="#0065FD" fill-opacity="0.12"/>
<rect x="70" y="64" width="40" height="40" rx="20" fill="#0065FD"/>
<path fill-rule="evenodd" clip-rule="evenodd" d="M100.707 76.2929C101.098 76.6834 101.098 77.3166 100.707 77.7071L87.7071 90.7071C87.3166 91.0976 86.6834 91.0976 86.2929 90.7071L80.2929 84.7071C79.9024 84.3166 79.9024 83.6834 80.2929 83.2929C80.6834 82.9024 81.3166 82.9024 81.7071 83.2929L87 88.5858L99.2929 76.2929C99.6834 75.9024 100.317 75.9024 100.707 76.2929Z" fill="white"/>
<path d="M122.227 9H57.7734C51.7154 9 46.7871 13.9283 46.7871 19.9863V148.014C46.7871 154.072 51.7154 159 57.7734 159H122.227C128.285 159 133.213 154.072 133.213 148.014V19.9863C133.213 13.9283 128.285 9 122.227 9ZM128.818 128.238H66.5625C65.349 128.238 64.3652 129.222 64.3652 130.436C64.3652 131.649 65.349 132.633 66.5625 132.633H128.818V148.014C128.818 151.649 125.861 154.605 122.227 154.605H57.7734C54.1386 154.605 51.1816 151.649 51.1816 148.014V132.633H57.7734C58.9869 132.633 59.9707 131.649 59.9707 130.436C59.9707 129.222 58.9869 128.238 57.7734 128.238H51.1816V30.9727H128.818V128.238ZM128.818 26.5781H51.1816V19.9863C51.1816 16.3515 54.1386 13.3945 57.7734 13.3945H122.227C125.861 13.3945 128.818 16.3515 128.818 19.9863V26.5781Z" fill="#0065FD"/>
<path d="M98.7891 17.7891H90C88.7865 17.7891 87.8027 18.7729 87.8027 19.9863C87.8027 21.1998 88.7865 22.1836 90 22.1836H98.7891C100.003 22.1836 100.986 21.1998 100.986 19.9863C100.986 18.7729 100.003 17.7891 98.7891 17.7891Z" fill="#0065FD"/>
<path d="M90 137.027C86.3651 137.027 83.4082 139.984 83.4082 143.619C83.4082 147.254 86.3651 150.211 90 150.211C93.6349 150.211 96.5918 147.254 96.5918 143.619C96.5918 139.984 93.6349 137.027 90 137.027ZM90 145.816C88.7883 145.816 87.8027 144.831 87.8027 143.619C87.8027 142.407 88.7883 141.422 90 141.422C91.2117 141.422 92.1973 142.407 92.1973 143.619C92.1973 144.831 91.2117 145.816 90 145.816Z" fill="#0065FD"/>
<path d="M81.2109 22.1836C82.4245 22.1836 83.4082 21.1998 83.4082 19.9863C83.4082 18.7728 82.4245 17.7891 81.2109 17.7891C79.9974 17.7891 79.0137 18.7728 79.0137 19.9863C79.0137 21.1998 79.9974 22.1836 81.2109 22.1836Z" fill="#0065FD"/>
</svg>

