<svg width="335" height="180" viewBox="0 0 335 180" fill="none" xmlns="http://www.w3.org/2000/svg">
<rect width="335" height="180" rx="10" fill="#190134"/>
<path d="M180.519 89.1468L162.521 78.1482C162.37 78.0556 162.196 78.005 162.019 78.0016C161.841 77.9983 161.666 78.0424 161.511 78.1293C161.356 78.2162 161.227 78.3428 161.137 78.4961C161.047 78.6494 161 78.8238 161 79.0015V100.999C161 101.176 161.047 101.351 161.137 101.504C161.227 101.657 161.356 101.784 161.511 101.871C161.666 101.958 161.841 102.002 162.019 101.998C162.196 101.995 162.37 101.945 162.521 101.852L180.519 90.8533C180.665 90.764 180.785 90.6386 180.869 90.4892C180.953 90.3398 180.997 90.1713 180.997 90C180.997 89.8287 180.953 89.6603 180.869 89.5109C180.785 89.3615 180.665 89.2361 180.519 89.1468Z" stroke="white" stroke-width="2" stroke-linecap="round" stroke-linejoin="round"/>
</svg>
